<?xml version="1.0" standalone="no"?>
<!DOCTYPE svg PUBLIC "-//W3C//DTD SVG 20010904//EN"
 "http://www.w3.org/TR/2001/REC-SVG-20010904/DTD/svg10.dtd">
<svg version="1.0" xmlns="http://www.w3.org/2000/svg"
 width="300.000000pt" height="300.000000pt" viewBox="0 0 300.000000 300.000000"
 preserveAspectRatio="xMidYMid meet">
<metadata>
Created by potrace 1.11, written by Peter Selinger 2001-2013
</metadata>
<g transform="translate(0.000000,300.000000) scale(0.100000,-0.100000)"
fill="#000000" stroke="none">
<path d="M753 2479 c-18 -5 -33 -14 -33 -19 0 -6 -11 -10 -25 -10 -31 0 -31
-3 -3 -48 12 -20 16 -32 10 -28 -13 8 -15 -4 -14 -81 0 -33 -4 -43 -16 -44
-10 0 -5 -6 13 -14 25 -11 27 -14 13 -20 -10 -4 -18 -11 -18 -17 0 -5 4 -7 9
-3 5 3 12 1 16 -5 3 -5 -3 -10 -14 -10 -24 0 -28 -18 -6 -26 8 -4 13 -10 10
-14 -3 -4 5 -11 18 -15 21 -6 21 -7 -7 -15 -16 -5 -33 -7 -38 -4 -5 3 -8 -2
-6 -12 2 -14 -10 -21 -62 -34 -108 -28 -149 -59 -150 -113 0 -16 35 -95 81
-184 77 -146 81 -157 64 -169 -16 -12 -17 -17 -6 -38 20 -36 10 -59 -27 -67
-47 -9 -60 -24 -44 -49 17 -28 17 -28 -27 -40 -43 -11 -56 -31 -41 -60 13 -24
31 -29 111 -31 l67 -2 6 -76 c11 -129 -15 -263 -76 -388 -24 -49 -38 -65 -69
-79 -42 -18 -48 -28 -25 -41 14 -8 19 -29 17 -71 -1 -15 -26 -50 -65 -90 -35
-37 -66 -76 -70 -87 -8 -28 9 -83 34 -110 l20 -22 -21 -19 c-12 -10 -24 -17
-28 -14 -3 3 -7 -12 -9 -33 -2 -26 1 -39 12 -43 9 -3 13 -10 10 -15 -3 -5 -1
-9 4 -9 6 0 8 -9 5 -19 -4 -17 1 -20 38 -23 l44 -3 -43 -20 -44 -20 139 -17
c76 -9 177 -17 226 -17 51 -1 87 -5 87 -11 0 -6 -46 -10 -119 -10 -69 0 -122
-4 -126 -10 -3 -5 -16 -10 -28 -10 -12 0 -35 -7 -51 -15 -15 -8 -48 -15 -72
-15 -23 0 -46 -4 -49 -10 -4 -7 110 -10 334 -10 203 0 341 4 341 9 0 5 -6 16
-13 23 -8 7 -12 19 -9 26 3 9 -20 12 -92 12 -52 0 -97 4 -100 9 -3 5 55 9 132
9 126 1 272 14 293 28 14 8 11 36 -6 48 -12 9 -13 18 -4 51 7 22 14 34 16 28
4 -10 55 -13 213 -13 116 0 211 -4 215 -9 10 -17 -58 -29 -185 -34 -82 -4
-138 -11 -162 -21 -21 -9 -38 -19 -38 -22 0 -2 11 -17 25 -32 14 -15 25 -31
25 -37 0 -6 14 -19 30 -29 37 -21 173 -27 207 -8 12 7 44 12 72 12 28 0 51 4
51 8 0 14 -121 32 -209 32 -44 0 -81 4 -81 9 0 4 25 16 55 25 52 17 100 22
213 25 48 1 52 3 52 26 0 13 -8 28 -17 34 -14 7 -10 11 24 20 48 13 73 34 73
62 0 14 -7 19 -27 19 -16 0 -35 4 -43 10 -17 11 -9 14 51 24 23 4 38 13 41 24
5 17 18 19 76 13 6 0 12 -8 12 -16 0 -9 6 -18 13 -20 7 -3 13 -24 13 -47 1
-37 7 -48 43 -79 l41 -37 -35 -6 c-38 -7 -53 -20 -27 -24 70 -10 135 -13 150
-6 9 4 21 6 25 5 5 -1 6 3 2 9 -3 5 -17 10 -31 10 -33 0 -30 13 9 32 17 8 55
33 82 54 164 125 167 127 175 114 5 -9 19 -11 40 -7 27 6 33 3 48 -24 11 -18
28 -32 45 -36 16 -3 35 -16 44 -29 19 -30 64 -32 103 -4 36 25 64 84 55 117
-3 13 -2 22 2 20 9 -6 -2 201 -12 233 -12 38 -25 20 -26 -37 -1 -33 -4 -45 -6
-29 -4 22 -7 26 -14 15 -7 -11 -9 -10 -9 5 0 35 -53 174 -76 202 l-24 29 10
-28 c6 -18 6 -27 -1 -27 -6 0 -7 -5 -4 -10 10 -16 23 -113 18 -127 -9 -23 -28
-14 -47 22 -35 64 -76 95 -76 57 0 -10 -5 -23 -11 -29 -9 -9 -17 -6 -32 13
-23 30 -34 25 -17 -7 10 -17 10 -34 1 -76 -7 -29 -17 -53 -22 -53 -5 0 -9 -9
-9 -20 0 -11 -4 -20 -10 -20 -5 0 -10 -6 -10 -14 0 -21 -78 -116 -103 -125
-32 -12 -52 28 -60 119 -6 76 -23 140 -36 140 -4 0 -9 -45 -10 -101 -2 -109
-7 -127 -44 -176 l-24 -32 -25 27 c-26 29 -63 121 -74 187 -4 22 -13 52 -21
68 -15 30 -26 37 -16 10 4 -10 2 -14 -4 -10 -8 5 -8 -5 -2 -31 5 -20 8 -46 8
-57 0 -20 0 -20 -14 -1 -8 11 -15 15 -15 9 0 -7 -7 -19 -16 -28 -15 -14 -18
-13 -41 11 -30 33 -40 26 -19 -14 15 -29 14 -30 -7 -36 -12 -3 -36 -6 -54 -6
-35 0 -42 -8 -54 -54 l-7 -31 -1 30 c-2 43 -20 105 -31 105 -6 0 -10 -5 -10
-10 0 -6 -14 -19 -32 -30 l-32 -19 -17 37 c-20 43 -41 48 -50 12 -5 -18 -7
-13 -7 20 0 71 10 95 40 93 18 -1 29 5 36 21 8 17 21 25 53 29 63 8 79 50 35
90 -39 35 -156 254 -156 292 0 38 46 114 69 116 30 2 46 -3 54 -17 16 -28 64
-16 96 23 27 32 30 42 24 78 -3 22 -11 47 -19 55 -8 10 -10 21 -3 31 7 13 3
21 -15 33 -44 28 -48 25 -50 -43 -1 -71 -15 -89 -59 -77 -24 6 -27 11 -27 47
0 22 7 56 15 76 l16 37 -43 43 c-23 24 -45 43 -49 43 -9 0 -1 -66 17 -149 l14
-63 -31 -52 c-17 -28 -42 -63 -56 -77 l-24 -26 26 -69 c46 -122 44 -218 -6
-275 -17 -20 -33 -24 -102 -29 -47 -3 -77 -8 -69 -13 17 -12 16 -67 -3 -67
-11 0 -10 -7 7 -36 17 -29 25 -34 44 -30 31 8 54 -2 54 -24 0 -24 -33 -34 -60
-20 -17 9 -24 8 -33 -4 -20 -27 -79 -66 -90 -59 -6 3 -7 1 -3 -5 4 -7 18 -9
31 -6 26 6 95 -12 95 -26 0 -18 -32 -32 -69 -28 -32 3 -42 0 -50 -17 -7 -15
-8 -12 -4 16 3 24 1 39 -7 44 -9 5 -11 4 -6 -3 12 -19 -4 -35 -20 -21 -8 7
-29 9 -49 6 -30 -5 -105 8 -105 18 0 2 4 15 10 29 13 35 6 49 -41 82 -37 26
-39 28 -23 45 10 11 28 19 41 19 13 0 26 7 29 15 4 8 10 15 16 15 5 0 6 -4 3
-10 -3 -5 -3 -10 2 -10 12 1 54 70 48 80 -9 15 -98 40 -142 40 l-42 0 -18 57
c-13 44 -17 97 -17 223 -1 91 2 174 7 184 7 19 8 19 22 0 13 -18 14 -16 15 19
0 37 0 37 43 38 72 1 107 6 122 19 23 19 18 30 -15 30 -17 0 -47 7 -68 15 -29
13 -34 18 -22 25 8 5 24 10 35 11 12 0 15 3 7 6 -10 4 -10 9 3 23 16 18 15 19
-23 18 -22 0 -45 3 -51 6 -20 13 -11 26 17 27 l27 1 -29 8 c-16 5 -33 7 -38 4
-4 -3 -17 -3 -27 1 -23 7 -17 44 8 46 9 1 21 2 26 4 6 1 16 3 23 3 15 2 16 28
0 38 -7 4 -8 3 -4 -4 9 -14 -32 -16 -53 -3 -19 12 -4 33 21 29 16 -2 33 23 99
152 43 85 79 160 79 166 0 6 -18 14 -39 17 -42 5 -92 35 -87 52 1 6 17 15 36
21 l33 11 -39 15 c-22 8 -56 18 -77 22 -27 5 -37 11 -34 21 4 8 -4 16 -20 20
-14 3 -32 13 -40 20 -8 8 -27 15 -43 15 -19 0 -36 9 -50 27 l-21 28 20 16 c27
22 26 29 -1 29 -42 0 -49 13 -46 81 3 64 3 64 35 67 l32 3 -19 32 c-26 41 -25
43 8 55 36 14 0 14 -45 1z m-140 -475 c12 -12 -13 -42 -44 -53 -18 -6 -47 -11
-65 -11 -27 0 -34 4 -34 19 0 29 39 51 91 51 25 0 49 -3 52 -6z m56 -408 c13
-16 -4 -26 -45 -26 -30 0 -31 14 -1 28 30 14 33 14 46 -2z m8 -59 c11 -11 -6
-37 -24 -37 -27 0 -47 16 -40 33 6 15 50 17 64 4z m-43 -66 c8 -13 -19 -21
-72 -21 -28 0 -42 4 -36 9 19 18 99 27 108 12z m-24 -90 c0 -12 -18 -18 -71
-25 -50 -7 -85 7 -59 24 19 12 130 13 130 1z m81 -138 c15 -38 14 -243 0 -322
-7 -35 -19 -82 -28 -103 -15 -37 -17 -38 -63 -38 l-48 0 20 43 c39 79 68 207
75 330 5 89 9 117 20 117 7 0 18 -12 24 -27z m449 -509 c0 -2 -26 -3 -57 -3
-49 1 -53 3 -23 8 33 6 80 3 80 -5z m-573 -1 c-20 -2 -52 -2 -70 0 -17 2 0 4
38 4 39 0 53 -2 32 -4z m54 -82 c20 -16 21 -21 10 -35 -16 -19 -72 -31 -106
-22 -25 6 -32 27 -19 60 9 23 85 21 115 -3z m-80 -154 c13 -6 25 -20 27 -31 2
-10 -1 -15 -7 -12 -5 4 -12 2 -16 -4 -13 -20 -78 -40 -114 -35 -20 3 -41 6
-48 7 -6 1 -9 7 -6 15 3 7 0 13 -6 13 -15 0 20 40 44 50 30 13 100 12 126 -3z
m689 -77 c0 -5 -4 -10 -10 -10 -5 0 -10 5 -10 10 0 6 5 10 10 10 6 0 10 -4 10
-10z m65 -65 c38 0 50 -4 53 -16 2 -11 -6 -19 -22 -23 -37 -9 -68 2 -90 31
-12 16 -14 23 -5 17 8 -4 36 -9 64 -9z m-760 -66 c5 -6 5 -9 -2 -9 -7 0 -13
-10 -15 -22 -3 -21 -10 -23 -62 -26 -65 -3 -76 4 -76 51 l0 27 73 -6 c39 -4
76 -10 82 -15z m705 11 c0 -5 -4 -10 -9 -10 -6 0 -13 5 -16 10 -3 6 1 10 9 10
9 0 16 -4 16 -10z m21 -13 c-10 -9 -11 -8 -5 6 3 10 9 15 12 12 3 -3 0 -11 -7
-18z m-128 6 c-7 -2 -19 -2 -25 0 -7 3 -2 5 12 5 14 0 19 -2 13 -5z m107 -48
c0 -8 -4 -15 -10 -15 -5 0 -10 7 -10 15 0 8 5 15 10 15 6 0 10 -7 10 -15z"/>
<path d="M1437 1631 c-26 -55 -27 -74 -4 -65 26 10 47 59 38 90 l-8 29 -26
-54z"/>
<path d="M1543 1647 c-39 -26 -38 -41 3 -45 23 -2 33 3 43 22 12 22 9 47 -7
45 -4 0 -22 -10 -39 -22z"/>
<path d="M1296 1436 c-7 -36 9 -85 31 -99 8 -5 11 -12 8 -18 -4 -5 -2 -9 3 -9
5 0 15 -21 21 -46 7 -26 14 -44 17 -41 5 5 -42 222 -51 238 -12 18 -23 8 -29
-25z"/>
<path d="M1041 823 c7 -12 15 -20 18 -17 3 2 -3 12 -13 22 -17 16 -18 16 -5
-5z"/>
<path d="M2916 693 c-11 -3 -33 -18 -50 -34 -17 -16 -36 -29 -43 -29 -7 0 -17
-9 -23 -20 -6 -11 -15 -18 -19 -15 -5 2 -9 -30 -10 -73 l-1 -77 77 0 c43 0 95
-4 116 -9 l37 -8 0 136 0 136 -32 -1 c-18 -1 -42 -4 -52 -6z"/>
<path d="M1813 608 c-18 -9 -23 -19 -22 -47 l1 -36 10 35 c10 37 26 53 42 43
5 -3 6 -1 2 5 -4 7 -8 12 -9 11 -1 0 -12 -5 -24 -11z"/>
<path d="M1110 576 c0 -13 7 -29 15 -36 8 -7 15 -10 15 -6 0 4 15 -1 33 -10
31 -17 32 -17 17 2 -63 79 -80 89 -80 50z"/>
<path d="M2050 60 c0 -5 12 -10 26 -10 14 0 23 4 19 10 -3 6 -15 10 -26 10
-10 0 -19 -4 -19 -10z"/>
</g>
</svg>
